# xmcd CD database file
#
# Track frame offsets:
#	150
#	22792
#	40491
#	61778
#	86646
#	139955
#	165981
#	190951
#	214726
#	241340
#
# Disc length: 3562 seconds
#
# Revision: 0
# Processed by: cddbd v1.5.1PL0 Copyright (c) Steve Scherf et al.
# Submitted via: CDex 1.51
#
DISCID=800de80a
DTITLE=Reverie - Tunnel Vision
DYEAR=2000
DGENRE=Jazz
TTITLE0=Log Rhythms
TTITLE1=Katy's Song
TTITLE2=Far In
TTITLE3=Somewhere You'll Find Love
TTITLE4=Space Monk
TTITLE5=Fly Spy
TTITLE6=Naptown Nights
TTITLE7=Hot and Sour
TTITLE8=Tunnel Vision
TTITLE9=Ten
EXTD=YEAR: 2000
EXTT0=
EXTT1=
EXTT2=
EXTT3=
EXTT4=
EXTT5=
EXTT6=
EXTT7=
EXTT8=
EXTT9=
PLAYORDER=
